Coordinates	
version=1	
nRows=462	
nColumns=2	
inDegrees=yes	
endheader	
time	flexion
0	0
0.003777875	0.000207418
0.008598287	0.001030989
0.014398926	0.002731661
0.019712871	0.004842205
0.021375119	0.005592157
0.023635979	0.006671281
0.025511299	0.007613139
0.027386619	0.008592926
0.029261939	0.009606631
0.031137258	0.010650412
0.033012578	0.011720584
0.034887898	0.012813615
0.036763218	0.013926127
0.038638538	0.015054887
0.040513858	0.016196819
0.042389178	0.017349002
0.044264498	0.01850867
0.046139818	0.019673215
0.048015138	0.020840185
0.049890457	0.022007289
0.051765777	0.023172395
0.053641097	0.024333526
0.055516417	0.025488846
0.057391737	0.026636676
0.059267057	0.027775489
0.061142377	0.028903889
0.063017697	0.030020609
0.064893017	0.031124501
0.066768337	0.032214532
0.068643656	0.033289775
0.070518976	0.034349402
0.072394296	0.035392678
0.074269616	0.036418956
0.076144936	0.037427667
0.078020256	0.038418318
0.079895576	0.039390487
0.081770896	0.040343813
0.083646216	0.041277996
0.085521536	0.042192793
0.087396855	0.043088011
0.089272175	0.043963505
0.091147495	0.044819173
0.093022815	0.045654955
0.094898135	0.046470829
0.096773455	0.047266808
0.098648775	0.048042937
0.100524095	0.04879929
0.102399415	0.04953597
0.104274735	0.050253106
0.106150054	0.050950847
0.108025374	0.051629367
0.109900694	0.052288857
0.111776014	0.052929529
0.113651334	0.053551608
0.115526654	0.054155336
0.117401974	0.054740968
0.119277294	0.05530877
0.121152614	0.055859019
0.123027934	0.056392003
0.124903253	0.056908019
0.126778573	0.057407368
0.128653893	0.057890361
0.130529213	0.058357312
0.132404533	0.058808543
0.134279853	0.059244376
0.136155173	0.059665139
0.138030493	0.060071161
0.139905813	0.060462773
0.141781133	0.060840306
0.143656452	0.061204095
0.145531772	0.06155447
0.147407092	0.061891764
0.149282412	0.062216308
0.151157732	0.062528431
0.153033052	0.062828459
0.154908372	0.063116719
0.156783692	0.063393533
0.158659012	0.063659219
0.160534332	0.063914093
0.162409651	0.064158468
0.164284971	0.064392653
0.166160291	0.064616952
0.168035611	0.064831664
0.169910931	0.065037085
0.171786251	0.065233507
0.173661571	0.065421216
0.175536891	0.065600492
0.177412211	0.065771611
0.179287531	0.065934845
0.181162851	0.066090459
0.18303817	0.066238714
0.18491349	0.066379865
0.18678881	0.06651416
0.18866413	0.066641844
0.19053945	0.066763155
0.19241477	0.066878327
0.19429009	0.066987587
0.19616541	0.067091156
0.19804073	0.067189251
0.19991605	0.067282082
0.201791369	0.067369856
0.203666689	0.067452772
0.205542009	0.067531025
0.207417329	0.067604803
0.209292649	0.067674291
0.211167969	0.067739667
0.213043289	0.067801104
0.214918609	0.067858771
0.216793929	0.067912831
0.218669249	0.067963442
0.220544568	0.068010758
0.222419888	0.068054926
0.224295208	0.06809609
0.226170528	0.06813439
0.228045848	0.06816996
0.229921168	0.068202929
0.231796488	0.068233423
0.233671808	0.068261564
0.235547128	0.068287468
0.237422448	0.068311247
0.239297767	0.068333011
0.241173087	0.068352864
0.243048407	0.068370908
0.244923727	0.068387238
0.246799047	0.068401948
0.248674367	0.068415129
0.250549687	0.068426866
0.252425007	0.068437243
0.254300327	0.068446338
0.256175647	0.068454227
0.258050966	0.068460985
0.259926286	0.068466682
0.261801606	0.068471383
0.263676926	0.068475154
0.265552246	0.068478055
0.267427566	0.068480146
0.269302886	0.068481483
0.271178206	0.068482119
0.273053526	0.068482105
0.274928846	0.06848149
0.276804165	0.068480321
0.278679485	0.06847864
0.280554805	0.068476491
0.282430125	0.068473914
0.284305445	0.068470945
0.286180765	0.068467622
0.288056085	0.068463977
0.289931405	0.068460045
0.291806725	0.068455854
0.293682045	0.068451434
0.295557364	0.068446813
0.297432684	0.068442015
0.299308004	0.068437066
0.301183324	0.068431987
0.303058644	0.068426801
0.304933964	0.068421528
0.306809284	0.068416186
0.308684604	0.068410793
0.310559924	0.068405366
0.312435244	0.068399919
0.314310563	0.068394468
0.316185883	0.068389026
0.318061203	0.068383605
0.319936523	0.068378217
0.321811843	0.068372872
0.323687163	0.06836758
0.325562483	0.068362349
0.327437803	0.068357189
0.329313123	0.068352106
0.331188443	0.068347107
0.333063762	0.068342198
0.334939082	0.068337386
0.336814402	0.068332674
0.338689722	0.068328068
0.340565042	0.06832357
0.342440362	0.068319185
0.344315682	0.068314915
0.346191002	0.068310763
0.348066322	0.06830673
0.349941642	0.068302819
0.351816961	0.06829903
0.353692281	0.068295365
0.355567601	0.068291824
0.357442921	0.068288408
0.359318241	0.068285116
0.361193561	0.068281948
0.363068881	0.068278904
0.364944201	0.068275983
0.366819521	0.068273184
0.368694841	0.068270506
0.37057016	0.068267948
0.37244548	0.068265508
0.3743208	0.068263185
0.37619612	0.068260977
0.37807144	0.068258883
0.37994676	0.068256899
0.38182208	0.068255025
0.3836974	0.068253257
0.38557272	0.068251595
0.38744804	0.068250034
0.38932336	0.068248574
0.391198679	0.068247212
0.393073999	0.068245945
0.394949319	0.068244771
0.396824639	0.068243687
0.398699959	0.068242691
0.400575279	0.06824178
0.402450599	0.068240951
0.404325919	0.068240203
0.406201239	0.068239532
0.408076559	0.068238937
0.409951878	0.068238413
0.411827198	0.06823796
0.413702518	0.068237574
0.415577838	0.068237253
0.417453158	0.068236995
0.419328478	0.068236796
0.421203798	0.068236656
0.423079118	0.06823657
0.424954438	0.068236538
0.426829758	0.068236556
0.428705077	0.068236623
0.430580397	0.068236736
0.432455717	0.068236893
0.434331037	0.068237092
0.436206357	0.068237331
0.438081677	0.068237608
0.439956997	0.068237921
0.441832317	0.068238267
0.443707637	0.068238646
0.445582957	0.068239056
0.447458276	0.068239493
0.449333596	0.068239958
0.451208916	0.068240448
0.453084236	0.068240961
0.454959556	0.068241496
0.456834876	0.068242052
0.458710196	0.068242626
0.460585516	0.068243218
0.462460836	0.068243826
0.464336156	0.068244449
0.466211475	0.068245085
0.468086795	0.068245734
0.469962115	0.068246394
0.471837435	0.068247064
0.473712755	0.068247742
0.475588075	0.068248429
0.477463395	0.068249122
0.479338715	0.068249821
0.481214035	0.068250525
0.483089355	0.068251233
0.484964674	0.068251944
0.486839994	0.068252657
0.488715314	0.068253372
0.490590634	0.068254088
0.492465954	0.068254804
0.494341274	0.06825552
0.496216594	0.068256234
0.498091914	0.068256947
0.499967234	0.068257658
0.501842554	0.068258365
0.503717873	0.06825907
0.505593193	0.06825977
0.507468513	0.068260467
0.509343833	0.068261159
0.511219153	0.068261846
0.513094473	0.068262527
0.514969793	0.068263203
0.516845113	0.068263873
0.518720433	0.068264537
0.520595753	0.068265194
0.522471072	0.068265845
0.524346392	0.068266488
0.526221712	0.068267125
0.528097032	0.068267753
0.529972352	0.068268375
0.531847672	0.068268989
0.533722992	0.068269595
0.535598312	0.068270193
0.537473632	0.068270783
0.539348952	0.068271364
0.541224271	0.068271938
0.543099591	0.068272504
0.544974911	0.068273061
0.546850231	0.06827361
0.548725551	0.068274151
0.550600871	0.068274683
0.552476191	0.068275207
0.554351511	0.068275723
0.556226831	0.068276231
0.558102151	0.06827673
0.55997747	0.068277221
0.56185279	0.068277704
0.56372811	0.068278178
0.56560343	0.068278645
0.56747875	0.068279104
0.56935407	0.068279555
0.57122939	0.068279997
0.57310471	0.068280433
0.57498003	0.06828086
0.57685535	0.06828128
0.578730669	0.068281692
0.580605989	0.068282097
0.582481309	0.068282495
0.584356629	0.068282885
0.586231949	0.068283268
0.588107269	0.068283644
0.589982589	0.068284014
0.591857909	0.068284376
0.593733229	0.068284732
0.595608549	0.068285081
0.597483869	0.068285424
0.599359188	0.068285761
0.601234508	0.068286091
0.603109828	0.068286415
0.604985148	0.068286733
0.606860468	0.068287046
0.608735788	0.068287352
0.610611108	0.068287653
0.612486428	0.068287948
0.614361748	0.068288238
0.616237068	0.068288523
0.618112387	0.068288802
0.619987707	0.068289077
0.621863027	0.068289346
0.623738347	0.068289611
0.625613667	0.06828987
0.627488987	0.068290126
0.629364307	0.068290376
0.631239627	0.068290622
0.633114947	0.068290864
0.634990267	0.068291102
0.636865586	0.068291335
0.638740906	0.068291565
0.640616226	0.06829179
0.642491546	0.068292012
0.644366866	0.06829223
0.646242186	0.068292445
0.648117506	0.068292655
0.649992826	0.068292863
0.651868146	0.068293067
0.653743466	0.068293267
0.655618785	0.068293465
0.657494105	0.068293659
0.659369425	0.068293851
0.661244745	0.068294039
0.663120065	0.068294224
0.664995385	0.068294407
0.666870705	0.068294587
0.668746025	0.068294764
0.670621345	0.068294939
0.672496665	0.068295111
0.674371984	0.06829528
0.676247304	0.068295448
0.678122624	0.068295613
0.679997944	0.068295775
0.681873264	0.068295936
0.683748584	0.068296094
0.685623904	0.06829625
0.687499224	0.068296404
0.689374544	0.068296556
0.691249864	0.068296706
0.693125183	0.068296855
0.695000503	0.068297001
0.696875823	0.068297146
0.698751143	0.068297289
0.700626463	0.06829743
0.702501783	0.068297569
0.704377103	0.068297707
0.706252423	0.068297843
0.708127743	0.068297978
0.710003063	0.068298111
0.711878382	0.068298243
0.713753702	0.068298374
0.715629022	0.068298503
0.717504342	0.06829863
0.719379662	0.068298756
0.721254982	0.068298881
0.723130302	0.068299005
0.725005622	0.068299128
0.726880942	0.068299249
0.728756262	0.068299369
0.730631581	0.068299488
0.732506901	0.068299606
0.734382221	0.068299722
0.736257541	0.068299838
0.738132861	0.068299952
0.740008181	0.068300066
0.741883501	0.068300178
0.743758821	0.06830029
0.745634141	0.0683004
0.747509461	0.06830051
0.74938478	0.068300618
0.7512601	0.068300726
0.75313542	0.068300833
0.75501074	0.068300939
0.75688606	0.068301044
0.75876138	0.068301148
0.7606367	0.068301251
0.76251202	0.068301353
0.76438734	0.068301455
0.76626266	0.068301556
0.768137979	0.068301656
0.770013299	0.068301755
0.771888619	0.068301854
0.773763939	0.068301951
0.775639259	0.068302048
0.777514579	0.068302145
0.779389899	0.06830224
0.781265219	0.068302335
0.783140539	0.068302429
0.785015859	0.068302523
0.786891178	0.068302615
0.788766498	0.068302708
0.790641818	0.068302799
0.792517138	0.06830289
0.794392458	0.06830298
0.796267778	0.068303069
0.798143098	0.068303158
0.800018418	0.068303246
0.801893738	0.068303334
0.803769058	0.068303421
0.805644378	0.068303507
0.807519697	0.068303593
0.809395017	0.068303678
0.811270337	0.068303763
0.813145657	0.068303847
0.815020977	0.06830393
0.816896297	0.068304013
0.818771617	0.068304096
0.820646937	0.068304177
0.822522257	0.068304258
0.824397577	0.068304339
0.826272896	0.068304419
0.828148216	0.068304499
0.830023536	0.068304578
0.831898856	0.068304656
0.833774176	0.068304734
0.835649496	0.068304812
0.837524816	0.068304888
0.839400136	0.068304965
0.841275456	0.068305041
0.843150776	0.068305116
0.845026095	0.068305191
0.846901415	0.068305265
0.848776735	0.068305339
0.850652055	0.068305413
0.852527375	0.068305486
0.854402695	0.068305558
0.856278015	0.06830563
0.858153335	0.068305701
0.860028655	0.068305772
0.861903975	0.068305843
0.863779294	0.068305913
0.865654614	0.068305983
0.867529934	0.068306052
0.869405254	0.06830612
0.871280574	0.068306189
0.873155894	0.068306256
0.875031214	0.068306324
0.876906534	0.068306391
